<?xml version="1.0" standalone="no"?><!DOCTYPE svg PUBLIC "-//W3C//DTD SVG 1.1//EN" "http://www.w3.org/Graphics/SVG/1.1/DTD/svg11.dtd"><svg t="1776952901117" class="icon" viewBox="0 0 1024 1024" version="1.1" xmlns="http://www.w3.org/2000/svg" p-id="5618" xmlns:xlink="http://www.w3.org/1999/xlink" width="200" height="200"><path d="M648.76544 0c24.40704 0 47.8208 9.68704 65.09568 26.9312l187.61728 187.21792a92.16 92.16 0 0 1 27.05408 65.2288v120.6272c44.2368 0 80.09728 35.85536 80.10752 80.08704v319.7952c0 43.24864-34.3296 78.6944-77.55776 80.06656l-2.54976 0.03072v48.00512c0 53.02272-43.02848 96-96.12288 96H191.5904c-53.0944 0-96.12288-42.97728-96.12288-96v-48.00512c-44.2368 0-80.09728-35.85536-80.10752-80.08704V480.1024c0-43.24864 34.3296-78.6944 77.55776-80.06656l2.54976-0.04096V96C95.46752 42.97728 138.496 0 191.5904 0h457.17504z m183.64416 879.99488H191.5904v17.28512a30.72 30.72 0 0 0 30.72 30.72h579.3792a30.72 30.72 0 0 0 30.72-30.72v-17.28512zM515.03104 542.72c-35.38944 0-71.02464 16.71168-77.16864 50.87232-6.38976 39.81312 24.08448 51.11808 58.73664 55.05024 20.64384 2.4576 30.96576 7.12704 30.96576 18.92352 0 14.99136-16.22016 23.83872-38.33856 23.83872-17.2032 0-37.35552-6.88128-47.9232-23.10144l-24.576 28.75392c12.288 20.15232 38.83008 29.73696 66.10944 29.4912 43.25376-0.24576 83.06688-17.2032 83.06688-63.40608 0-32.68608-27.27936-44.97408-57.26208-47.67744-19.90656-1.72032-33.66912-4.66944-33.66912-17.69472 0-13.76256 16.22016-21.87264 34.4064-21.87264 13.27104 0 28.75392 4.17792 36.61824 13.76256l25.8048-23.10144c-14.99136-18.432-31.45728-23.83872-56.77056-23.83872z m-149.17632 2.21184C293.10976 544.93184 256 601.21088 256 652.32896c0 39.3216 23.83872 72.99072 77.90592 72.99072 25.55904 0 49.88928-7.86432 70.53312-25.31328l-19.16928-26.54208c-12.04224 10.32192-31.21152 16.46592-44.97408 16.46592-38.0928 0-48.90624-28.50816-44.72832-53.57568 4.17792-25.06752 24.82176-55.54176 63.8976-55.54176 13.76256 0 28.50816 3.93216 36.864 14.00832l28.01664-23.3472c-14.7456-17.44896-34.89792-26.54208-58.49088-26.54208z m265.17504 3.93216h-43.008l41.28768 172.76928h41.04192L770.8672 548.864h-43.008l-70.77888 127.05792-26.05056-127.05792z m-27.81184-460.544H222.3104a30.72 30.72 0 0 0-30.72 30.72v280.95488h640.8192v-81.5616h-137.00096c-50.8928-0.01024-92.14976-41.2672-92.16-92.16l-0.03072-137.95328z" fill="#1B8ADD" p-id="5619"></path></svg>