<?xml version="1.0" standalone="no"?><!DOCTYPE svg PUBLIC "-//W3C//DTD SVG 1.1//EN" "http://www.w3.org/Graphics/SVG/1.1/DTD/svg11.dtd"><svg t="1776865656939" class="icon" viewBox="0 0 1024 1024" version="1.1" xmlns="http://www.w3.org/2000/svg" p-id="7902" xmlns:xlink="http://www.w3.org/1999/xlink" width="200" height="200"><path d="M774.8 519.1c-16.1 0-34.5-4.6-44.2-13.7-9.9-9.4-14.8-21.6-14.8-36.4v-89.5h27.8V469c0 8 2 15.1 7.6 19.4 14.8 11.3 42.5 5 52.3 0.1v-109h27.8v123.9c-10.4 5.3-24 15.7-56.5 15.7zM252.5 644.3c-16.1 0-34.5-4.6-44.2-13.7-9.9-9.4-14.8-21.6-14.8-36.4v-89.5h27.8v89.5c0 8 2 15.1 7.6 19.4 14.8 11.3 42.5 5 52.3 0.1v-109H309v123.9c-10.5 5.4-24 15.7-56.5 15.7zM509.2 644.1h-40.3V504.6h40.3c20.8 0 37.8 6.8 50.8 20.3 12.4 13 18.6 29.6 18.6 49.6 0 20.2-6.2 36.7-18.6 49.6-13 13.3-29.9 20-50.8 20z m2.9-112.2h-15.4v85s10.5-0.1 15.4-0.1c11.7 0 21.1-4.1 28.3-12.3 7-7.8 10.5-17.8 10.5-30.1 0-12.2-3.5-22.3-10.6-30.4-7.1-8.1-16.5-12.1-28.2-12.1zM676.9 448.6c-3.8-2.7-14.3-7.9-31.4-15.8-11.2-5.2-16.7-10.4-16.7-15.5 0-9.7 7.6-14.5 22.7-14.5 10.1 0 21.8 2.7 34.9 8V386c-13.5-4.3-25.8-6.5-36.8-6.5-13 0-24 2.9-32.8 8.8-10.5 6.9-15.8 17-15.8 30.6 0 11.4 5.6 20.8 16.8 28.3 1.3 1 11.6 6.2 30.8 15.5 11.2 5.5 16.8 11.4 16.8 17.5 0 4.5-2.3 8.3-7 11.4-4.7 3.1-10.5 4.6-17.5 4.6-12.7 0-26.1-3.3-40.1-10l-6.8 24 10.1 3.1v-0.1c12 3.8 24.6 5.8 37.7 5.8 12.9 0 24.1-2.8 33.6-8.3 12.2-7.2 18.3-17.8 18.3-31.8-0.1-12.1-5.7-22.2-16.8-30.3zM446.6 601.5L359 504.7h-27.8v139.6H359v-96.9l87.6 96.9zM853.6 422.5l87.6 96.8H969V379.7h-27.8v96.9l-87.6-96.9zM143.4 504.9v55.7H83.5v-55.7H55.7v139.2h27.8v-55.7h59.9v55.7h27.8V504.9z" fill="#FFFFFF" p-id="7903"></path><path d="M0 449.4h221.1v250.3H0z" fill="#FFB600" p-id="7904"></path><path d="M207.1 449.4h219.8v250.3H207.1z" fill="#E81F76" p-id="7905"></path><path d="M826.2 324.2H1024v250.3H826.2z" fill="#54C0E8" p-id="7906"></path><path d="M537.8 324.2h288.4v250.3H537.8z" fill="#009ADE" p-id="7907"></path><path d="M537.8 324.2v125.2H426.9v250.4H633.8V324.2z" fill="#655DC6" p-id="7908"></path><path d="M774.3 519.2c-16.1 0-34.4-4.6-44.1-13.7-9.9-9.4-14.8-21.5-14.8-36.4v-89.4h27.8v89.4c0 8 2 15.1 7.6 19.4 14.8 11.3 42.4 5 52.2 0.1v-109h27.8v123.8c-10.4 5.4-24 15.8-56.5 15.8zM252.2 644.3c-16.1 0-34.4-4.6-44.1-13.7-9.9-9.4-14.8-21.5-14.8-36.4v-89.4h27.8v89.4c0 8 2 15.1 7.6 19.4 14.8 11.3 42.4 5 52.2 0.1v-109h27.8v123.8c-10.4 5.5-24 15.8-56.5 15.8zM446.3 601.5l-87.5-96.7H331v139.5h27.8v-96.8l87.5 96.8zM853 422.5l87.6 96.7h27.8V379.7h-27.8v96.8L853 379.7zM143.3 505v55.7H83.4V505H55.6v139.2h27.8v-55.7h59.9v55.7h27.8V505zM508.8 644.2h-40.2V504.7h40.2c20.8 0 37.7 6.8 50.8 20.3 12.4 13 18.6 29.5 18.6 49.6 0 20.2-6.2 36.7-18.6 49.6-12.9 13.3-29.9 20-50.8 20z m2.9-112.2h-15.4v84.9s10.5-0.1 15.4-0.1c11.7 0 21.1-4.1 28.2-12.3 7-7.8 10.5-17.8 10.5-30.1 0-12.2-3.5-22.3-10.6-30.4-7-8-16.3-12-28.1-12zM676.4 448.8c-3.8-2.7-14.3-7.9-31.4-15.8-11.1-5.2-16.7-10.3-16.7-15.5 0-9.7 7.6-14.5 22.7-14.5 10.1 0 21.8 2.7 34.9 8v-24.8c-13.5-4.3-25.8-6.5-36.8-6.5-13 0-24 2.9-32.8 8.8-10.5 6.8-15.8 17-15.8 30.5 0 11.4 5.6 20.8 16.8 28.3 1.3 1 11.6 6.2 30.8 15.5 11.2 5.5 16.8 11.4 16.8 17.5 0 4.5-2.3 8.3-7 11.4-4.7 3.1-10.5 4.6-17.5 4.6-12.7 0-26-3.3-40.1-10l-6.8 24 10.1 3.1v-0.1c12 3.8 24.6 5.8 37.7 5.8 12.9 0 24-2.8 33.6-8.3 12.2-7.2 18.3-17.8 18.3-31.8-0.1-12.1-5.7-22.2-16.8-30.2z" fill="#FFFFFF" p-id="7909"></path></svg>