<?xml version="1.0" standalone="no"?><!DOCTYPE svg PUBLIC "-//W3C//DTD SVG 1.1//EN" "http://www.w3.org/Graphics/SVG/1.1/DTD/svg11.dtd"><svg t="1776865931595" class="icon" viewBox="0 0 1024 1024" version="1.1" xmlns="http://www.w3.org/2000/svg" p-id="6437" xmlns:xlink="http://www.w3.org/1999/xlink" width="200" height="200"><path d="M653.88544 0a92.16 92.16 0 0 1 65.09568 26.9312l187.61728 187.21792a92.16 92.16 0 0 1 27.05408 65.2288v120.6272A80.10752 80.10752 0 0 1 1013.76 480.09216v319.7952a80.10752 80.10752 0 0 1-77.55776 80.06656l-2.54976 0.03072v48.00512c0 53.02272-43.02848 96-96.12288 96H196.7104c-53.0944 0-96.12288-42.97728-96.12288-96v-48.00512A80.10752 80.10752 0 0 1 20.48 799.8976v-319.7952a80.10752 80.10752 0 0 1 77.55776-80.06656l2.54976-0.04096V96C100.58752 42.97728 143.616 0 196.7104 0h457.17504zM837.5296 879.99488H196.7104v17.28512a30.72 30.72 0 0 0 30.72 30.72h579.3792a30.72 30.72 0 0 0 30.72-30.72v-17.28512zM460.62592 555.78624c-15.90272 0-30.04416 3.11296-42.41408 9.33888-12.38016 6.22592-23.1424 15.63648-32.28672 28.23168-5.70368 7.80288-10.10688 16.9984-13.21984 27.56608a116.13184 116.13184 0 0 0-4.66944 32.96256c0 21.74976 6.2464 38.7584 18.7392 51.01568 12.48256 12.26752 29.85984 18.40128 52.13184 18.40128 14.92992 0 28.55936-3.06176 40.89856-9.17504s22.85568-14.98112 31.54944-26.60352c6.15424-8.32512 10.98752-18.05312 14.52032-29.19424 3.52256-11.14112 5.28384-22.44608 5.28384-33.91488 0-21.52448-6.22592-38.3488-18.67776-50.46272-12.4416-12.11392-29.73696-18.16576-51.85536-18.16576z m186.29632 0c-16.42496 0-30.6176 2.23232-42.57792 6.69696-11.97056 4.4544-22.6304 11.53024-32.01024 21.1968-7.80288 8.02816-13.89568 17.70496-18.2784 29.0304a96.64512 96.64512 0 0 0-6.58432 35.21536c0 23.552 7.03488 41.96352 21.0944 55.23456 14.05952 13.27104 33.65888 19.9168 58.7776 19.9168 6.90176 0 13.98784-0.512 21.26848-1.52576a216.2688 216.2688 0 0 0 22.60992-4.44416l4.05504-36.89472a99.61472 99.61472 0 0 1-19.41504 7.424 74.5472 74.5472 0 0 1-18.8416 2.47808c-14.0288 0-25.11872-3.69664-33.30048-11.08992-8.17152-7.38304-12.25728-17.37728-12.25728-29.97248 0-19.3536 5.39648-34.48832 16.19968-45.39392 10.79296-10.91584 25.83552-16.37376 45.1072-16.37376a75.776 75.776 0 0 1 20.19328 2.59072 66.8672 66.8672 0 0 1 17.83808 7.87456l10.56768-32.512a208.72192 208.72192 0 0 0-28.11904-7.08608 152.59648 152.59648 0 0 0-26.32704-2.36544z m-379.12576 3.70688h-53.20704L180.72576 719.36h66.82624c17.92 0 32.88064-1.78176 44.88192-5.34528a82.87232 82.87232 0 0 0 31.3856-17.03936c8.704-7.50592 15.43168-17.08032 20.19328-28.74368 4.7616-11.6736 7.14752-24.36096 7.14752-38.0928 0-23.83872-6.8608-41.5744-20.5824-53.20704-13.7216-11.6224-34.65216-17.43872-62.7712-17.43872z m490.496 0h-45.44512l32.06144 73.472-69.74464 86.39488h51.968l42.63936-58.50112c1.1264 3.90144 2.21184 7.55712 3.26656 10.96704 1.04448 3.42016 1.98656 6.35904 2.80576 8.83712l14.1824 38.69696h45.44512l-34.7648-84.82816 62.89408-75.03872h-50.0736l-38.69696 49.95072a311.86944 311.86944 0 0 0-5.8368-19.56864 8.27392 8.27392 0 0 0-0.34816-0.90112l-10.3424-29.48096z m-300.48256 25.98912c9.29792 0 16.49664 3.19488 21.6064 9.56416 5.08928 6.37952 7.63904 15.4112 7.63904 27.11552 0 8.17152-1.15712 16.57856-3.4816 25.1904-2.32448 8.63232-5.36576 15.91296-9.1136 21.83168-5.09952 7.7312-10.42432 13.44512-15.9744 17.16224a31.92832 31.92832 0 0 1-18.11456 5.56032c-9.00096 0-16.0768-3.23584-21.25824-9.728-5.18144-6.48192-7.76192-15.36-7.76192-26.60352 0-8.25344 1.15712-16.71168 3.4816-25.37472 2.32448-8.66304 5.36576-16.0256 9.1136-22.09792 4.57728-7.43424 9.728-13.056 15.4624-16.87552a32.5632 32.5632 0 0 1 18.40128-5.7344z m-190.01344 4.84352c12.7488 0 22.5792 3.34848 29.47072 10.06592 6.90176 6.71744 10.35264 16.1792 10.35264 28.40576 0 8.5504-1.5872 16.82432-4.78208 24.81152a60.54912 60.54912 0 0 1-13.44512 20.64384 42.1376 42.1376 0 0 1-16.70144 10.2912c-6.41024 2.14016-14.336 3.20512-23.79776 3.20512H230.912l20.80768-97.42336h16.08704zM608.33792 88.32H227.4304a30.72 30.72 0 0 0-30.72 30.72v280.95488h640.8192v-81.5616H700.52864c-50.8928-0.01024-92.14976-41.2672-92.16-92.16l-0.03072-137.95328z m96.12288 59.84256v58.91072a15.36 15.36 0 0 0 15.36 15.36h59.0848l-74.4448-74.27072z" fill="#1B8ADD" p-id="6438"></path></svg>