<?xml version="1.0" standalone="no"?><!DOCTYPE svg PUBLIC "-//W3C//DTD SVG 1.1//EN" "http://www.w3.org/Graphics/SVG/1.1/DTD/svg11.dtd"><svg t="1776866336121" class="icon" viewBox="0 0 1024 1024" version="1.1" xmlns="http://www.w3.org/2000/svg" p-id="12684" xmlns:xlink="http://www.w3.org/1999/xlink" width="200" height="200"><path d="M243.2 774.4h537.6c64 0 108.8-51.2 108.8-108.8V198.4c0-64-51.2-108.8-108.8-108.8H243.2c-64 0-115.2 51.2-115.2 108.8v608c0 25.6 12.8 51.2 38.4 70.4 19.2 19.2 44.8 25.6 70.4 25.6h614.4c19.2 0 38.4-19.2 38.4-38.4s-19.2-38.4-38.4-38.4H243.2c-6.4 0-19.2 0-25.6-6.4-6.4-6.4-12.8-12.8-12.8-19.2V768c12.8 0 25.6 6.4 38.4 6.4z m-32-576c0-19.2 12.8-32 32-32h537.6c19.2 0 32 12.8 32 32v460.8c0 19.2-12.8 32-32 32H243.2c-19.2 0-32-12.8-32-32V198.4z m409.6 371.2L499.2 262.4c-6.4-12.8-19.2-25.6-32-25.6-19.2 0-32 6.4-38.4 19.2v6.4l-128 307.2c-6.4 19.2 0 44.8 19.2 51.2 19.2 6.4 44.8 0 51.2-19.2l32-83.2H512l32 76.8c12.8 25.6 32 32 57.6 25.6 19.2-6.4 25.6-25.6 19.2-51.2z m-185.6-128l25.6-64 25.6 64h-51.2z m211.2 147.2V275.2c0-19.2 19.2-38.4 38.4-38.4s38.4 19.2 38.4 38.4v307.2c0 19.2-19.2 38.4-38.4 38.4-19.2 6.4-38.4-12.8-38.4-32z" fill="#313337" p-id="12685"></path></svg>