<?xml version="1.0" standalone="no"?><!DOCTYPE svg PUBLIC "-//W3C//DTD SVG 1.1//EN" "http://www.w3.org/Graphics/SVG/1.1/DTD/svg11.dtd"><svg t="1776952501324" class="icon" viewBox="0 0 1024 1024" version="1.1" xmlns="http://www.w3.org/2000/svg" p-id="5150" xmlns:xlink="http://www.w3.org/1999/xlink" width="200" height="200"><path d="M648.76544 0c24.40704 0 47.8208 9.68704 65.09568 26.9312l187.61728 187.21792a92.16 92.16 0 0 1 27.05408 65.2288v120.6272c44.2368 0 80.09728 35.85536 80.10752 80.08704v319.7952c0 43.24864-34.3296 78.6944-77.55776 80.06656l-2.54976 0.03072v48.00512c0 53.02272-43.02848 96-96.12288 96H191.5904c-53.0944 0-96.12288-42.97728-96.12288-96v-48.00512c-44.2368 0-80.09728-35.85536-80.10752-80.08704V480.1024c0-43.24864 34.3296-78.6944 77.55776-80.06656l2.54976-0.04096V96C95.46752 42.97728 138.496 0 191.5904 0h457.17504z m183.64416 879.99488H191.5904v17.28512a30.72 30.72 0 0 0 30.72 30.72h579.3792a30.72 30.72 0 0 0 30.72-30.72v-17.28512z m-445.87008-331.90912h-43.99104L312.32 720.11776h38.33856l21.38112-121.6512 39.3216 68.8128h6.88128l64.88064-66.84672-21.13536 119.68512h38.33856l30.22848-172.032h-43.49952L425.12384 614.1952l-38.58432-66.10944z m253.37856-0.24576h-70.53312l-30.22848 172.032h70.53312c73.23648 0 102.48192-53.32992 102.48192-102.48192 0-37.60128-21.38112-69.55008-72.25344-69.55008z m-5.89824 34.65216c29.73696 0 40.05888 19.16928 40.05888 39.56736 0 24.08448-12.288 62.42304-58.24512 62.42304h-32.68608l18.18624-101.9904h32.68608z m-30.80192-494.17216H222.3104a30.72 30.72 0 0 0-30.72 30.72v280.95488h640.8192v-81.5616h-137.00096c-50.8928-0.01024-92.14976-41.2672-92.16-92.16l-0.03072-137.95328z" fill="#1B8ADD" p-id="5151"></path></svg>