<?xml version="1.0" standalone="no"?><!DOCTYPE svg PUBLIC "-//W3C//DTD SVG 1.1//EN" "http://www.w3.org/Graphics/SVG/1.1/DTD/svg11.dtd"><svg t="1777882581297" class="icon" viewBox="0 0 1024 1024" version="1.1" xmlns="http://www.w3.org/2000/svg" p-id="18291" xmlns:xlink="http://www.w3.org/1999/xlink" width="200" height="200"><path d="M653.88544 0a92.16 92.16 0 0 1 65.09568 26.9312l187.61728 187.21792a92.16 92.16 0 0 1 27.05408 65.2288v120.6272A80.10752 80.10752 0 0 1 1013.76 480.09216v319.7952a80.10752 80.10752 0 0 1-77.55776 80.06656l-2.54976 0.03072v48.00512c0 53.02272-43.02848 96-96.12288 96H196.7104c-53.0944 0-96.12288-42.97728-96.12288-96v-48.00512A80.10752 80.10752 0 0 1 20.48 799.8976v-319.7952a80.10752 80.10752 0 0 1 77.55776-80.06656l2.54976-0.04096V96C100.58752 42.97728 143.616 0 196.7104 0h457.17504zM837.5296 879.99488H196.7104v17.28512a30.72 30.72 0 0 0 30.72 30.72h579.3792a30.72 30.72 0 0 0 30.72-30.72v-17.28512z m-133.12-323.9936c-7.49568 0-14.9504 0.48128-22.3232 1.41312-7.39328 0.94208-14.76608 2.38592-22.1184 4.33152l-4.83328 31.61088a178.7392 178.7392 0 0 1 21.6576-5.7344 96.03072 96.03072 0 0 1 17.94048-1.91488c7.95648 0 14.19264 1.66912 18.7392 5.0176 4.53632 3.328 6.79936 7.8848 6.79936 13.66016 0 6.83008-2.97984 11.64288-8.93952 14.45888-5.96992 2.80576-16.55808 4.21888-31.78496 4.21888-1.1264 0-2.8672-0.04096-5.2224-0.11264-2.37568-0.08192-4.22912-0.11264-5.5808-0.11264l-5.7344 27.55584c1.28 0 2.6624-0.01024 4.16768-0.0512 1.49504-0.04096 3.4816-0.06144 5.95968-0.06144 11.4688 0 19.90656 1.39264 25.31328 4.16768 5.39648 2.7648 8.0896 7.12704 8.0896 13.04576 0 7.05536-3.19488 12.65664-9.61536 16.82432-6.41024 4.15744-15.12448 6.2464-26.15296 6.2464-7.49568 0-14.4384-0.82944-20.80768-2.47808a64.78848 64.78848 0 0 1-17.664-7.424l-8.5504 31.83616c9.07264 3.52256 17.94048 6.16448 26.60352 7.92576 8.66304 1.77152 17.16224 2.65216 25.48736 2.65216 22.49728 0 39.95648-4.63872 52.36736-13.89568 12.41088-9.2672 18.61632-22.2208 18.61632-38.87104 0-8.5504-2.41664-15.63648-7.26016-21.25824-4.83328-5.632-12.0832-9.75872-21.77024-12.38016 12.98432-1.35168 23.21408-5.55008 30.72-12.5952 7.49568-7.05536 11.24352-15.90272 11.24352-26.55232 0-12.9024-4.9152-23.04-14.73536-30.43328-9.8304-7.38304-23.35744-11.07968-40.61184-11.07968z m-342.55872 3.49184h-66.26304l-34.2016 159.86688h39.26016l20.25472-93.82912c0.36864-1.72032 1.15712-5.98016 2.3552-12.76928l0.96256-5.4272 1.06496-6.08256 2.47808-14.19264h1.91488l5.7344 132.3008H374.784l62.21824-132.3008h1.34144a914.97472 914.97472 0 0 0-4.89472 18.90304 366.3872 366.3872 0 0 0-3.76832 16.87552l-20.13184 96.52224h39.48544l34.53952-159.86688H414.8224l-37.00736 80.55808a346.624 346.624 0 0 0-7.59808 17.48992c-2.14016 5.36576-3.92192 10.4448-5.34528 15.24736 0.22528-3.97312 0.39936-7.5776 0.512-10.8032 0.1024-3.2256 0.16384-6.07232 0.16384-8.5504 0-2.92864-0.02048-5.34528-0.0512-7.26016a229.376 229.376 0 0 0-0.17408-5.44768l-3.4816-81.23392z m199.5776 0h-47.2576L480.3072 719.36h42.41408l12.71808-58.2656c4.94592 0.21504 9.3184 0.38912 13.1072 0.50176 3.7888 0.1024 6.98368 0.16384 9.61536 0.16384 21.4528 0 38.28736-5.25312 50.51392-15.74912s18.3296-24.90368 18.3296-43.20256c0-14.848-5.30432-25.78432-15.91296-32.78848-10.60864-7.0144-27.16672-10.52672-49.664-10.52672z m-1.024 28.80512c8.11008 0 14.29504 1.60768 18.56512 4.83328 4.28032 3.2256 6.42048 7.91552 6.42048 14.06976 0 7.49568-2.85696 13.3632-8.5504 17.60256-5.70368 4.23936-13.69088 6.3488-23.9616 6.3488h-11.264l8.89856-42.8544h9.90208z m47.93344-499.97824H227.4304a30.72 30.72 0 0 0-30.72 30.72v280.95488h640.8192v-81.5616H700.52864c-50.8928-0.01024-92.14976-41.2672-92.16-92.16l-0.03072-137.95328z m96.12288 59.84256v58.91072a15.36 15.36 0 0 0 15.36 15.36h59.0848l-74.4448-74.27072z" fill="#FF527B" p-id="18292"></path></svg>