<?xml version="1.0" standalone="no"?><!DOCTYPE svg PUBLIC "-//W3C//DTD SVG 1.1//EN" "http://www.w3.org/Graphics/SVG/1.1/DTD/svg11.dtd"><svg t="1776866419054" class="icon" viewBox="0 0 1024 1024" version="1.1" xmlns="http://www.w3.org/2000/svg" p-id="6602" xmlns:xlink="http://www.w3.org/1999/xlink" width="200" height="200"><path d="M643.64544 0a92.16 92.16 0 0 1 65.09568 26.9312l187.61728 187.21792a92.16 92.16 0 0 1 27.05408 65.2288v120.6272A80.10752 80.10752 0 0 1 1003.52 480.09216v319.7952a80.10752 80.10752 0 0 1-77.55776 80.06656l-2.54976 0.03072v48.00512c0 53.02272-43.02848 96-96.12288 96H186.4704c-53.0944 0-96.12288-42.97728-96.12288-96v-48.00512A80.10752 80.10752 0 0 1 10.24 799.8976v-319.7952a80.10752 80.10752 0 0 1 77.55776-80.06656l2.54976-0.04096V96C90.34752 42.97728 133.376 0 186.4704 0h457.17504zM827.2896 879.99488H186.4704v17.28512a30.72 30.72 0 0 0 30.72 30.72h579.3792a30.72 30.72 0 0 0 30.72-30.72v-17.28512z m-467.968-320.50176h-47.2576L278.20032 719.36h42.41408l12.70784-58.2656c4.95616 0.21504 9.3184 0.38912 13.1072 0.50176 3.7888 0.1024 6.99392 0.16384 9.6256 0.16384 21.44256 0 38.28736-5.25312 50.50368-15.74912 12.22656-10.496 18.33984-24.90368 18.33984-43.20256 0-14.848-5.30432-25.78432-15.91296-32.78848-10.61888-7.0144-27.17696-10.52672-49.664-10.52672z m151.53152 0H457.6256L423.77216 719.36h66.82624c17.92 0 32.89088-1.78176 44.89216-5.34528a82.87232 82.87232 0 0 0 31.3856-17.03936c8.704-7.50592 15.43168-17.08032 20.19328-28.74368 4.7616-11.6736 7.14752-24.36096 7.14752-38.0928 0-23.83872-6.8608-41.5744-20.5824-53.20704-13.73184-11.6224-34.6624-17.43872-62.78144-17.43872z m231.5264 0H635.4944L601.3952 719.36h42.6496l13.7216-65.69984h61.98272l6.30784-29.92128h-61.76768l7.08608-34.53952h64.57344l6.42048-29.696z m-231.5264 30.8224c12.7488 0 22.56896 3.35872 29.47072 10.07616 6.90176 6.71744 10.35264 16.1792 10.35264 28.40576 0 8.5504-1.59744 16.82432-4.78208 24.81152a60.54912 60.54912 0 0 1-13.44512 20.64384 42.1376 42.1376 0 0 1-16.70144 10.2912c-6.42048 2.14016-14.34624 3.20512-23.79776 3.20512h-18.00192l20.81792-97.42336h16.0768z m-152.55552-2.01728c8.09984 0 14.29504 1.60768 18.56512 4.83328 4.28032 3.2256 6.41024 7.91552 6.41024 14.06976 0 7.49568-2.84672 13.3632-8.5504 17.60256-5.69344 4.23936-13.68064 6.3488-23.9616 6.3488h-11.24352l8.88832-42.8544h9.89184zM598.09792 88.32H217.1904a30.72 30.72 0 0 0-30.72 30.72v280.95488h640.8192v-81.5616H690.28864c-50.8928-0.01024-92.14976-41.2672-92.16-92.16l-0.03072-137.95328z m96.12288 59.84256v58.91072a15.36 15.36 0 0 0 15.36 15.36h59.0848l-74.4448-74.27072z" fill="#EFAA0F" p-id="6603"></path></svg>