<?xml version="1.0" standalone="no"?><!DOCTYPE svg PUBLIC "-//W3C//DTD SVG 1.1//EN" "http://www.w3.org/Graphics/SVG/1.1/DTD/svg11.dtd"><svg t="1777461810805" class="icon" viewBox="0 0 1024 1024" version="1.1" xmlns="http://www.w3.org/2000/svg" p-id="3799" xmlns:xlink="http://www.w3.org/1999/xlink" width="200" height="200"><path d="M653.88544 0a92.16 92.16 0 0 1 65.09568 26.9312l187.61728 187.21792a92.16 92.16 0 0 1 27.05408 65.2288v120.6272A80.10752 80.10752 0 0 1 1013.76 480.09216v319.7952a80.10752 80.10752 0 0 1-77.55776 80.06656l-2.54976 0.03072v48.00512c0 53.02272-43.02848 96-96.12288 96H196.7104c-53.0944 0-96.12288-42.97728-96.12288-96v-48.00512A80.10752 80.10752 0 0 1 20.48 799.8976v-319.7952a80.10752 80.10752 0 0 1 77.55776-80.06656l2.54976-0.04096V96C100.58752 42.97728 143.616 0 196.7104 0h457.17504zM837.5296 879.99488H196.7104v17.28512a30.72 30.72 0 0 0 30.72 30.72h579.3792a30.72 30.72 0 0 0 30.72-30.72v-17.28512zM705.81248 555.56096c-18.82112 0-34.79552 2.3552-47.9232 7.08608a88.22784 88.22784 0 0 0-34.304 22.38464 79.59552 79.59552 0 0 0-17.72544 27.72992 94.8224 94.8224 0 0 0-6.02112 34.03776c0 24.00256 7.12704 42.63936 21.38112 55.9104 14.24384 13.27104 34.304 19.9168 60.18048 19.9168 10.73152 0 20.5824-0.65536 29.5936-1.97632a150.016 150.016 0 0 0 25.42592-5.89824l18.8928-88.43264h-66.60096L682.52672 655.36h26.32704l-7.19872 33.41312a89.8048 89.8048 0 0 1-9.00096 1.85344c-2.77504 0.4096-5.4784 0.6144-8.09984 0.6144-12.9024 0-23.02976-3.8912-30.37184-11.69408-7.35232-7.80288-11.02848-18.56512-11.02848-32.28672 0-18.83136 6.00064-33.6384 18.00192-44.4416 12.00128-10.79296 28.5696-16.19968 49.72544-16.19968 6.9632 0 13.6704 0.80896 20.0704 2.41664a80.86528 80.86528 0 0 1 18.6368 7.26016l9.216-32.84992a146.4832 146.4832 0 0 0-25.31328-5.95968 192.45056 192.45056 0 0 0-27.67872-1.91488z m-359.54688 3.93216h-47.24736L265.15456 719.36h42.41408l12.70784-58.2656c4.95616 0.21504 9.3184 0.38912 13.1072 0.50176 3.7888 0.1024 6.99392 0.16384 9.6256 0.16384 21.44256 0 38.27712-5.25312 50.50368-15.74912 12.22656-10.496 18.33984-24.90368 18.33984-43.20256 0-14.848-5.30432-25.78432-15.91296-32.78848-10.61888-7.0144-27.17696-10.52672-49.67424-10.52672z m150.19008 0h-52.5312l-34.0992 159.86688h39.15776l17.65376-83.58912c0.98304-4.64896 1.88416-9.6256 2.70336-14.8992 0.8192-5.29408 1.61792-10.8544 2.3552-16.71168h1.69984c0.45056 4.64896 1.1264 9.09312 2.01728 13.33248 0.90112 4.23936 1.98656 8.37632 3.26656 12.43136l27.22816 89.43616h52.5312l34.0992-159.86688h-38.93248l-17.1008 80.896a390.01088 390.01088 0 0 0-3.71712 18.8928 153.58976 153.58976 0 0 0-1.792 14.7456h-1.91488a128.88064 128.88064 0 0 0-2.59072-14.848 262.79936 262.79936 0 0 0-5.1712-18.56512l-24.86272-81.12128z m-151.20384 28.80512c8.09984 0 14.2848 1.60768 18.56512 4.83328 4.27008 3.2256 6.41024 7.91552 6.41024 14.06976 0 7.49568-2.84672 13.3632-8.5504 17.60256-5.69344 4.23936-13.69088 6.3488-23.9616 6.3488h-11.25376l8.88832-42.8544h9.90208zM608.33792 88.32H227.4304a30.72 30.72 0 0 0-30.72 30.72v280.95488h640.8192v-81.5616H700.52864c-50.8928-0.01024-92.14976-41.2672-92.16-92.16l-0.03072-137.95328z m96.12288 59.84256v58.91072a15.36 15.36 0 0 0 15.36 15.36h59.0848l-74.4448-74.27072z" fill="#26B99A" p-id="3800"></path></svg>