<?xml version="1.0" standalone="no"?><!DOCTYPE svg PUBLIC "-//W3C//DTD SVG 1.1//EN" "http://www.w3.org/Graphics/SVG/1.1/DTD/svg11.dtd"><svg t="1776866440782" class="icon" viewBox="0 0 1024 1024" version="1.1" xmlns="http://www.w3.org/2000/svg" p-id="6765" xmlns:xlink="http://www.w3.org/1999/xlink" width="200" height="200"><path d="M653.88544 0a92.16 92.16 0 0 1 65.09568 26.9312l187.61728 187.21792a92.16 92.16 0 0 1 27.05408 65.2288v120.6272A80.10752 80.10752 0 0 1 1013.76 480.09216v319.7952a80.10752 80.10752 0 0 1-77.55776 80.06656l-2.54976 0.03072v48.00512c0 53.02272-43.02848 96-96.12288 96H196.7104c-53.0944 0-96.12288-42.97728-96.12288-96v-48.00512A80.10752 80.10752 0 0 1 20.48 799.8976v-319.7952a80.10752 80.10752 0 0 1 77.55776-80.06656l2.54976-0.04096V96C100.58752 42.97728 143.616 0 196.7104 0h457.17504zM837.5296 879.99488H196.7104v17.28512a30.72 30.72 0 0 0 30.72 30.72h579.3792a30.72 30.72 0 0 0 30.72-30.72v-17.28512zM451.2768 559.49312H327.54688l-6.41024 30.8224h39.59808l-27.4432 129.04448h43.07968l27.4432-129.03424h40.84736l6.63552-30.8224z m52.09088 0H457.9328l32.06144 73.472-69.74464 86.39488h51.968l42.63936-58.50112c1.1264 3.90144 2.21184 7.55712 3.26656 10.96704 1.04448 3.42016 1.98656 6.35904 2.80576 8.83712l14.1824 38.69696h45.44512L545.792 634.53184l62.89408-75.03872h-50.0736l-38.69696 49.95072a311.86944 311.86944 0 0 0-5.8368-19.56864 8.27392 8.27392 0 0 0-0.34816-0.90112l-10.3424-29.48096z m236.82048 0H616.43776l-6.41024 30.8224h39.59808L622.17216 719.36h43.08992l27.4432-129.03424h40.84736l6.63552-30.8224zM608.33792 88.32H227.4304a30.72 30.72 0 0 0-30.72 30.72v280.95488h640.8192v-81.5616H700.52864c-50.8928-0.01024-92.14976-41.2672-92.16-92.16l-0.03072-137.95328z m96.12288 59.84256v58.91072a15.36 15.36 0 0 0 15.36 15.36h59.0848l-74.4448-74.27072z" fill="#1B8ADD" p-id="6766"></path></svg>