<?xml version="1.0" standalone="no"?><!DOCTYPE svg PUBLIC "-//W3C//DTD SVG 1.1//EN" "http://www.w3.org/Graphics/SVG/1.1/DTD/svg11.dtd"><svg t="1776866463443" class="icon" viewBox="0 0 1024 1024" version="1.1" xmlns="http://www.w3.org/2000/svg" p-id="13665" xmlns:xlink="http://www.w3.org/1999/xlink" width="200" height="200"><path d="M96 448h423.36c296.96 0 245.76-410.56-17.6-410.56-93.44 0-192 64-199.36 153.92-8.32 96 86.08 139.84 128 85.44a48 48 0 0 0-32-76.8c0-23.36 45.44-66.88 103.68-66.88 139.2 0 184.96 218.56 17.6 218.56H96A48 48 0 0 0 96 448z m338.88 96H96a48 48 0 0 0 0 96h320a124.8 124.8 0 0 1 123.84 124.8c0 148.8-204.48 151.04-221.12 69.12 50.88 55.36 126.08-36.16 55.36-93.12-92.8-74.56-217.92 77.44-111.68 181.76a220.16 220.16 0 0 0 374.4-157.76 224 224 0 0 0-201.92-220.8zM800 480h-128a48 48 0 0 0 0 96h136.64a85.44 85.44 0 0 1 62.08 142.72c-13.44-82.88-149.76-61.12-135.68 37.76a101.44 101.44 0 0 0 144 71.04A181.12 181.12 0 0 0 800 480z" fill="#231F20" p-id="13666"></path></svg>