<?xml version="1.0" standalone="no"?><!DOCTYPE svg PUBLIC "-//W3C//DTD SVG 1.1//EN" "http://www.w3.org/Graphics/SVG/1.1/DTD/svg11.dtd"><svg t="1776952882066" class="icon" viewBox="0 0 1024 1024" version="1.1" xmlns="http://www.w3.org/2000/svg" p-id="5462" xmlns:xlink="http://www.w3.org/1999/xlink" width="200" height="200"><path d="M653.88544 0a92.16 92.16 0 0 1 65.09568 26.9312l187.61728 187.21792a92.16 92.16 0 0 1 27.05408 65.2288v120.6272A80.10752 80.10752 0 0 1 1013.76 480.09216v319.7952a80.10752 80.10752 0 0 1-77.55776 80.06656l-2.54976 0.03072v48.00512c0 53.02272-43.02848 96-96.12288 96H196.7104c-53.0944 0-96.12288-42.97728-96.12288-96v-48.00512A80.10752 80.10752 0 0 1 20.48 799.8976v-319.7952a80.10752 80.10752 0 0 1 77.55776-80.06656l2.54976-0.04096V96C100.58752 42.97728 143.616 0 196.7104 0h457.17504zM837.5296 879.99488H196.7104v17.28512a30.72 30.72 0 0 0 30.72 30.72h579.3792a30.72 30.72 0 0 0 30.72-30.72v-17.28512z m-241.28512-323.9936c-20.10112 0-36.34176 4.82304-48.71168 14.46912-12.38016 9.6256-18.56512 22.17984-18.56512 37.632 0 8.76544 2.21184 16.27136 6.63552 22.49728 4.42368 6.22592 11.17184 11.24352 20.25472 15.07328 2.32448 0.9728 5.5808 2.28352 9.7792 3.9424 16.73216 6.66624 25.088 13.86496 25.088 21.59616 0 6.144-3.14368 11.02848-9.44128 14.62272-6.30784 3.60448-14.92992 5.39648-25.87648 5.39648-6.00064 0-12.1344-0.8192-18.40128-2.46784a103.39328 103.39328 0 0 1-19.4048-7.424l-9.216 32.96256c8.2432 2.9184 16.81408 5.12 25.7024 6.57408a171.3152 171.3152 0 0 0 27.84256 2.2016c22.87616 0 40.99072-5.20192 54.33344-15.58528 13.35296-10.38336 20.02944-24.32 20.02944-41.78944 0-9.5232-2.4064-17.36704-7.19872-23.52128-4.8128-6.144-13.84448-12.4416-27.11552-18.8928a196.47488 196.47488 0 0 0-10.8032-4.73088c-11.39712-4.72064-17.1008-9.97376-17.1008-15.74912 0-5.3248 2.53952-9.39008 7.59808-12.20608 5.05856-2.80576 12.35968-4.21888 21.88288-4.21888 6.2976 0 12.45184 0.65536 18.45248 1.96608 5.9904 1.32096 11.91936 3.2768 17.7664 5.90848l9.90208-31.16032c-6.36928-2.32448-14.08-4.096-23.11168-5.28384a231.79264 231.79264 0 0 0-30.32064-1.80224z m-307.80416 3.49184H242.9952l32.0512 73.472-69.7344 86.39488h51.968l42.63936-58.50112c1.1264 3.90144 2.21184 7.55712 3.25632 10.96704 1.05472 3.42016 1.98656 6.35904 2.816 8.83712l14.17216 38.69696h45.45536l-34.7648-84.82816 62.88384-75.03872h-50.06336l-38.69696 49.95072a311.87968 311.87968 0 0 0-5.84704-19.56864 8.27392 8.27392 0 0 0-0.33792-0.90112l-10.3424-29.48096z m172.57472 0h-43.08992L383.83616 719.36H492.7488l6.97344-31.8464h-66.1504l27.45344-128.02048z m257.29024 0h-45.45536l32.06144 73.472-69.74464 86.39488h51.97824l42.62912-58.50112c1.1264 3.90144 2.22208 7.55712 3.2768 10.96704 1.04448 3.42016 1.97632 6.35904 2.80576 8.83712l14.17216 38.69696h45.44512l-34.75456-84.82816 62.88384-75.03872h-50.06336l-38.7072 49.95072a311.86944 311.86944 0 0 0-5.8368-19.56864 8.27392 8.27392 0 0 0-0.33792-0.90112l-10.35264-29.48096zM608.33792 88.32H227.4304a30.72 30.72 0 0 0-30.72 30.72v280.95488h640.8192v-81.5616H700.52864c-50.8928-0.01024-92.14976-41.2672-92.16-92.16l-0.03072-137.95328z m96.12288 59.84256v58.91072a15.36 15.36 0 0 0 15.36 15.36h59.0848l-74.4448-74.27072z" fill="#1B8ADD" p-id="5463"></path></svg>